<?xml version="1.0" encoding="UTF-8"?>
<svg id="Capa_1" xmlns="http://www.w3.org/2000/svg" version="1.1" viewBox="0 0 509 120">
  <!-- Generator: Adobe Illustrator 29.0.0, SVG Export Plug-In . SVG Version: 2.1.0 Build 186)  -->
  <defs>
    <style>
      .st0 {
        fill: #fff;
      }
    </style>
  </defs>
  <g>
    <path class="st0" d="M137.61,14.41h52.27l-2.24,16.62h-35.69l-1.17,9.07h34.23l-2.34,16.52h-34.23l-1.56,11.79h35.69l-2.24,16.52h-52.27l9.56-70.51Z"/>
    <path class="st0" d="M195.74,14.41h16.58l-7.32,53.99h35.79l-2.24,16.52h-52.37l9.56-70.51Z"/>
    <path class="st0" d="M253.96,14.41h52.28l-2.24,16.62h-35.69l-1.17,9.07h34.23l-2.34,16.52h-34.23l-1.56,11.79h35.69l-2.24,16.52h-52.28l9.56-70.51Z"/>
    <path class="st0" d="M311.11,14.41h18.53l13.17,44.22,25.16-44.22h18.33l-40.67,70.51h-12.78l-21.75-70.51Z"/>
    <path class="st0" d="M390.21,14.41h52.27l-2.24,16.62h-35.69l-1.17,9.07h34.23l-2.34,16.52h-34.23l-1.56,11.79h35.69l-2.24,16.52h-52.28l9.56-70.51Z"/>
    <path class="st0" d="M448.34,14.41h13.75l25.06,40.29,5.46-40.29h16.38l-9.56,70.51h-13.56l-25.26-40.09-5.46,40.09h-16.38l9.56-70.51Z"/>
  </g>
  <g>
    <path class="st0" d="M331.93,97.78c.66-4.64,4.02-7.35,8.48-7.35,3.37,0,5.65,1.51,6.33,4.18h-1.45c-.66-1.93-2.39-3.05-5.04-3.05-3.88,0-6.43,2.35-6.97,6.23-.54,3.84,1.33,6.19,5.22,6.19,2.67,0,4.68-1.1,5.87-2.99h1.45c-1.45,2.65-4.1,4.12-7.47,4.12-4.5,0-7.05-2.69-6.41-7.31Z"/>
    <path class="st0" d="M355.33,104.81l1.97-14.04h5.52c3.05,0,5.52.88,5.1,3.9-.26,1.85-1.41,3.13-3.5,3.72l2.73,6.45h-1.49l-2.51-6.23c-.5.08-.98.1-1.51.1h-4.18l-.86,6.13-1.29-.02ZM361.98,97.58c3.13,0,4.36-1.06,4.62-2.91.24-1.77-.76-2.77-3.98-2.77h-4.18l-.8,5.69h4.34Z"/>
    <path class="st0" d="M379.18,90.77h10.1l-.16,1.16h-8.8l-.7,4.98h8.46l-.16,1.15h-8.46l-.78,5.62h8.8l-.16,1.15h-10.1l1.97-14.06Z"/>
    <path class="st0" d="M405.99,90.77h1.39l4.66,14.06h-1.45l-1.39-4.26h-7.85l-2.57,4.26h-1.41l8.62-14.06ZM408.88,99.44l-2.39-7.43-4.46,7.43h6.85Z"/>
    <path class="st0" d="M425.62,91.93h-5.75l.16-1.16h12.8l-.16,1.16h-5.77l-1.81,12.9h-1.29l1.81-12.9Z"/>
    <path class="st0" d="M441.09,97.78c.66-4.64,4.02-7.35,8.48-7.35s7.07,2.69,6.43,7.31c-.66,4.66-3.94,7.35-8.5,7.35s-7.05-2.69-6.41-7.31ZM447.66,103.96c3.94,0,6.45-2.41,6.97-6.19.54-3.84-1.35-6.23-5.22-6.23s-6.43,2.35-6.97,6.23c-.54,3.84,1.33,6.19,5.22,6.19Z"/>
    <path class="st0" d="M465.04,104.81l1.97-14.04h5.52c3.05,0,5.52.88,5.1,3.9-.26,1.85-1.41,3.13-3.5,3.72l2.73,6.45h-1.49l-2.51-6.23c-.5.08-.98.1-1.51.1h-4.18l-.86,6.13-1.29-.02ZM471.69,97.58c3.13,0,4.36-1.06,4.62-2.91.24-1.77-.76-2.77-3.98-2.77h-4.18l-.8,5.69h4.34Z"/>
    <path class="st0" d="M486.84,101.13l1.39-.02c-.24,1.67.86,2.85,4.4,2.85,3.33,0,4.76-1.19,5-2.85.2-1.47-.46-2.35-3.48-2.77l-1.99-.28c-3.13-.44-4.64-1.43-4.3-3.86.34-2.39,2.55-3.72,6.33-3.78,3.78.04,5.63,1.37,5.34,3.72h-1.31c.2-1.53-1-2.61-4.2-2.61s-4.64,1.08-4.84,2.63c-.22,1.53.62,2.29,3.25,2.67l2.11.3c3.46.5,4.8,1.59,4.46,4-.34,2.39-2.55,3.96-6.53,3.96h-.02c-4.2,0-5.97-1.57-5.63-3.96Z"/>
  </g>
  <g>
    <path class="st0" d="M67.04,23.25h21.57l-11.05,70.63-24.61,25.03h46.78c9.25,0,17.61-5.5,21.28-13.99l4.48-10.36h-12.25L127.76,0h-31.39l-29.32,23.25Z"/>
    <polygon class="st0" points="67.05 23.25 45.47 23.25 74.8 0 43.41 0 14.09 23.25 35.66 23.25 24.61 93.88 0 118.91 31.39 118.91 56 93.88 67.05 23.25"/>
  </g>
</svg>